<svg width="100%" height="100%" viewBox="0 0 16 17" fill="none" xmlns="http://www.w3.org/2000/svg">
<path d="M8.73335 15.8335H7.00002L7.33335 15.6255C7.55558 15.4864 7.79735 15.3308 8.05869 15.1588C8.32002 14.9868 8.56158 14.8313 8.78335 14.6922L9.11669 14.4835C10.0167 14.4168 10.8474 14.1446 11.6087 13.6668C12.37 13.189 12.9727 12.5501 13.4167 11.7501C12.4611 11.6613 11.5556 11.4195 10.7 11.0248C9.84447 10.6301 9.0778 10.0941 8.40002 9.41682C7.72224 8.73948 7.18335 7.97282 6.78335 7.11682C6.38335 6.26082 6.14447 5.35526 6.06669 4.40015C5.21113 4.87793 4.5418 5.53637 4.05869 6.37548C3.57558 7.21459 3.3338 8.12282 3.33335 9.10015V9.30015L3.13335 9.39215C3.00002 9.45304 2.85269 9.51682 2.69135 9.58348C2.53002 9.65015 2.38291 9.71415 2.25002 9.77548L2.05002 9.86682C2.0278 9.74459 2.01402 9.61682 2.00869 9.48348C2.00335 9.35015 2.00047 9.22237 2.00002 9.10015C2.00002 7.70015 2.42224 6.39459 3.26669 5.18348C4.11113 3.97237 5.21669 3.16682 6.58335 2.76682C6.70558 2.73348 6.81669 2.72793 6.91669 2.75015C7.01669 2.77237 7.11113 2.81682 7.20002 2.88348C7.28891 2.95015 7.35291 3.03082 7.39202 3.12548C7.43113 3.22015 7.44491 3.32837 7.43335 3.45015C7.36669 4.39459 7.50291 5.30304 7.84202 6.17548C8.18113 7.04793 8.6838 7.81726 9.35002 8.48348C10.0278 9.16126 10.7918 9.66126 11.642 9.98348C12.4922 10.3057 13.3894 10.439 14.3334 10.3835C14.4556 10.3724 14.5696 10.3919 14.6754 10.4421C14.7811 10.4924 14.8616 10.5617 14.9167 10.6501C14.9718 10.7386 15.0107 10.833 15.0334 10.9335C15.056 11.0339 15.0449 11.145 15 11.2668C14.5222 12.6557 13.7334 13.7642 12.6334 14.5922C11.5334 15.4202 10.2334 15.8339 8.73335 15.8335ZM4.00002 14.5002H7.00002C7.2778 14.5002 7.51402 14.403 7.70869 14.2088C7.90335 14.0146 8.00047 13.7784 8.00002 13.5002C7.99958 13.2219 7.90513 12.9859 7.71669 12.7921C7.52824 12.5984 7.30047 12.501 7.03335 12.5001H6.16669L5.83335 11.7001C5.6778 11.3335 5.43335 11.0419 5.10002 10.8255C4.76669 10.609 4.40002 10.5006 4.00002 10.5001C3.44447 10.5001 2.97224 10.6919 2.58335 11.0755C2.19447 11.459 2.00002 11.9339 2.00002 12.5001C2.00002 13.0557 2.19447 13.5279 2.58335 13.9168C2.97224 14.3057 3.44447 14.5002 4.00002 14.5002ZM4.00002 15.8335C3.0778 15.8335 2.2918 15.5084 1.64202 14.8582C0.992243 14.2079 0.667132 13.4219 0.666687 12.5001C0.666243 11.5784 0.991354 10.7924 1.64202 10.1421C2.29269 9.49193 3.07869 9.16682 4.00002 9.16682C4.66669 9.16682 5.27513 9.34748 5.82535 9.70882C6.37558 10.0701 6.7838 10.5561 7.05002 11.1668C7.68335 11.189 8.22224 11.4253 8.66669 11.8755C9.11113 12.3257 9.33335 12.8673 9.33335 13.5002C9.33335 14.1446 9.10558 14.6946 8.65002 15.1502C8.19447 15.6057 7.64447 15.8335 7.00002 15.8335H4.00002Z" fill="inherited"/>
</svg>
